<svg height="315.832234" viewBox="0 0 400 399.27667269" width="316.623793" xmlns="http://www.w3.org/2000/svg"><g fill-rule="evenodd"><path d="m0 199.8v199.8h200 200v-199.8-199.8h-200-200zm114.463-183.633c11.473 2.195 13.97 6.946 13.978 26.59.008 23.205-3.664 27.163-25.215 27.171-22.153.008-26.282-4.922-25.59-30.551.44-16.302 3.452-21.285 14.028-23.205 4.104-.745 18.915-.748 22.799-.005m38.504-.103c.289.289.48 1.69.48 3.53 0 3.958.047 3.976 3.116 1.164 7.982-7.314 22.782-7.286 30.01.057 5.027 5.107 5.267 6.479 5.139 29.408l-.104 18.708h-5.394-5.395l-.2-16.983c-.19-16.151-.24-17.071-1.034-18.786-3.911-8.45-17.955-8.466-23.308-.026-2.08 3.279-2.157 3.936-2.402 20.41l-.229 15.385h-5.394-5.395l-.103-26.174c-.057-14.395-.018-26.398.087-26.673.262-.687 9.441-.705 10.126-.02m89.767.103c9 1.722 14.438 8.421 13.733 16.916l-.123 1.482h-5.395-5.395l-.491-1.992c-1.213-4.913-2.327-5.357-13.51-5.381-14.11-.031-13.971-.186-13.971 15.565 0 15.649-.283 15.318 13.268 15.512 11.661.167 14.341-.927 14.014-5.722l-.109-1.598-5.394-.2-5.395-.2v-5.594-5.594l11.072-.107 11.071-.106.475.888c.342.638.408 2.748.237 7.499-.677 18.796-4.666 22.218-25.852 22.177-21.512-.042-24.753-3.559-24.768-26.872-.011-17.337 1.559-21.893 8.667-25.147 4.502-2.061 20.493-2.937 27.866-1.526m65.01.05c8.941 1.697 13.11 6.768 13.604 16.55l.131 2.598h-5.56-5.559l-.522-2.558c-1.049-5.144-2.231-5.634-13.595-5.634-13.967 0-13.704-.302-13.717 15.7-.013 15.699-.434 15.203 13.059 15.396 11.845.17 13.175-.374 14.251-5.821l.454-2.298 5.447-.111c6.321-.129 6.046-.322 5.518 3.889-1.609 12.812-6.299 15.778-24.951 15.778-22.326 0-25.175-3.05-25.175-26.949 0-18.108 1.32-21.911 8.742-25.194 4.45-1.969 20.504-2.744 27.873-1.346m-215.037 11.841c-3.241 1.646-3.396 2.328-3.396 14.899 0 15.573-.169 15.385 13.786 15.385 13.926 0 13.786.16 13.786-15.785 0-15.631.432-15.129-13.187-15.299-8.898-.11-9.248-.085-10.989.8m103.408 79.634c.061 11.649.241 45.994.399 76.324l.289 55.145h2.797 2.798l.27-1.798c.148-.989.283-35.178.299-75.975.026-63.145.113-74.246.591-74.643.428-.355 1.763-.317 5.656.163 55.316 6.819 89.323 59.87 73.069 113.99-1.499 4.993 1.909 4.552-32.706 4.237l-29.865-.272-.601-.918c-.348-.53-1.013-3.923-1.575-8.026-.535-3.909-1.419-10.345-1.964-14.301-.546-3.956-1.348-9.8-1.784-12.987-2.472-18.073-3.691-26.209-3.968-26.494-.759-.781-1.397 67.609-.643 68.83.18.29 10.659.422 33.58.422 23.014 0 33.401.13 33.581.423.262.423-1.117 2.676-2.636 4.305l-.806.866h-21.14c-12.223 0-21.234.153-21.363.363-.124.199.924 1.265 2.327 2.368 7.684 6.038 13.91 13.44 17.778 21.134 1.718 3.416 1.653 3.963-.585 4.922-3.594 1.541-3.564 1.549-4.984-1.277-6.756-13.437-22.751-26.952-32.479-27.443-3.807-.192-3.921-.043-3.774 4.946l.115 3.896 3.597 1.448c9.855 3.967 16.913 10.364 21.419 19.413 3.042 6.111 2.888 6.657-2.146 7.602l-1.418.266-1.626-3.472c-3.733-7.964-11.174-15.187-17.953-17.424-1.893-.625-2.057-.244-1.705 3.951l.312 3.71 3.047 2.808c4.272 3.936 7.689 11.496 6.545 14.478-.338.88-38.014 1.046-38.348.169-.276-.723.324-4.614 1.019-6.601 1.295-3.707 3.41-6.49 7.555-9.94.918-.764 1.061-1.253 1.32-4.53.355-4.482.171-4.762-2.463-3.761-6.791 2.581-14.198 9.963-17.305 17.247-1.444 3.384-1.68 3.524-4.539 2.693-3.47-1.009-3.299-3.037.839-9.959 4.492-7.517 17.001-17.362 22.121-17.41 1.302-.013 1.579-1.01 1.462-5.26l-.114-4.137-3.197.009c-9.29.027-25.33 13.098-32.355 26.364-2.158 4.076-1.899 3.943-4.841 2.492-3.117-1.537-3.154-1.796-.861-5.984 3.922-7.164 10.446-14.858 16.987-20.031 1.598-1.264 2.801-2.468 2.673-2.674-.14-.227-8.606-.376-21.36-.376h-21.129l-1.372-1.698c-1.647-2.037-2.34-3.302-1.997-3.644.139-.139 15.215-.252 33.503-.252 28.032 0 33.324-.088 33.716-.56.48-.579.258-64.73-.235-67.772-.483-2.982-1.17 1.26-5.922 36.563-3.425 25.438-3.317 24.866-4.73 25.15-1.467.296-58.487.671-59.596.393-1.377-.346-1.963-1.582-3.635-7.663-12.897-46.92 13.772-94.596 60.39-107.96 5.227-1.498 15.492-3.223 18.356-3.085l1.199.058zm-12.499-14.007c-45.232 9.524-73.779 54.511-62.898 99.122.428 1.758.951 3.602 1.161 4.096l.382.899h25.354c27.693 0 26.276.122 26.772-2.293.125-.607 1.94-11.322 4.033-23.812s5.148-30.651 6.788-40.36c5.4-31.968 6.197-36.822 6.199-37.731.002-1.193-1.837-1.175-7.791.079m24.326 1.234c.143 1.216.963 6.296 1.823 11.289.86 4.992 2.749 16.09 4.199 24.661 10.79 63.783 11.016 65.063 11.645 66.034l.583.899h25.317c19.772 0 25.404-.109 25.718-.499 1.296-1.611 3.279-13.215 3.572-20.911 1.318-34.515-20.074-66.667-52.618-79.086-6.165-2.353-15.509-4.597-19.145-4.598l-1.354-.001zm51.798 168.542c5.7 1.667 8.167 4.605 8.112 9.658-.034 3.141.015 3.337.938 3.758.927.422.968.594.857 3.542l-.117 3.097-1.398.108c-.769.06-1.803.198-2.298.308l-.899.199v15.603c0 9.992-.149 15.881-.414 16.376-.42.786-6.455 1.179-8.145.531-.561-.216-.632-1.992-.632-15.905 0-16.945.043-16.62-2.198-16.62-2.239 0-2.197-.309-2.197 16.421 0 13.73-.071 15.489-.632 15.704-1.171.449-7.179.264-7.68-.237-.296-.296-.48-1.749-.48-3.796 0-3.709-.088-3.797-2.561-2.536-4.742 2.418-11.899 1.671-15.366-1.603-2.201-2.079-2.434-3.372-2.443-13.583-.01-9.943-.087-10.37-1.873-10.37-1.236 0-1.734-1.116-1.726-3.87.009-3.68-.471-3.495 9.668-3.723l8.907-.199.035-2.836c.109-8.928 10.502-13.55 22.542-10.027m-10.396 7.409c-1.744.926-2.636 2.599-2.138 4.013 1.179 3.353 10.536 2.684 10.536-.753 0-3.36-4.744-5.202-8.398-3.26m-100.888 6.825c5.953 2.93 8.409 9.039 6.177 15.361l-.901 2.552 1.025 1.347c.564.741 1.274 2.336 1.578 3.545.506 2.008.657 2.208 1.764 2.318 2.08.206 2.167-.204 2.049-9.752l-.108-8.732-1.199-.403c-1.817-.612-2.572-4.015-1.384-6.235.441-.825 55.366-1.245 56.647-.432 1.177.746.447 6.633-.841 6.781-1.38.158-1.716.921-1.081 2.453 1.519 3.668-.088 10.391-3.24 13.56-3.303 3.319-5.787 3.956-12.339 3.16-1.667-.202-1.705 3.63-.052 5.283l1.19 1.189h6.65c8.146 0 8.198.021 8.19 3.311-.009 3.771.741 3.538-10.962 3.402l-10.298-.119-1.925-2.094c-2.646-2.879-2.859-4.115-2.707-15.689l.124-9.39 4.246-.113c4.856-.129 4.729-.231 4.74 3.799.006 2.333 1.058 3.307 3.575 3.307 4.666 0 5.576-9.203 1.119-11.318-1.434-.68-14.48-1.028-16.045-.428-.561.216-.632 1.966-.632 15.611 0 18.302.372 16.914-4.529 16.914-5.097 0-4.662 1.551-4.662-16.62 0-17.412.218-16.147-2.781-16.147-2.451 0-2.394-.379-2.509 16.818l-.104 15.749-3.937.115c-5.003.146-4.996.152-5.14-4.447l-.114-3.66h-1.79c-1.608 0-1.872.137-2.597 1.352-5.399 9.039-16.463 10.75-23.407 3.621-2.802-2.877-4.047-5.464-3.894-8.096l.12-2.071 3.937-.115c4.581-.134 5.054.099 5.054 2.491 0 5.4 8.777 5.773 9.911.421.732-3.453-.674-5.281-4.413-5.738l-2.102-.256v-3.397-3.397l2.149-.262c2.591-.316 3.625-1.218 3.92-3.419.772-5.753-7.536-7.951-9.119-2.414-.754 2.634-.867 2.699-4.742 2.699-4.786 0-5.305-1.132-3.021-6.599 2.648-6.337 11.604-9.167 18.41-5.816m206.709-.692c.645.645.639 5.768-.007 6.167-.267.165-1.121.404-1.898.53l-1.412.229-.104 15.743c-.122 18.259.265 16.812-4.491 16.812-4.586 0-4.328.562-4.473-9.74l-.123-8.713-1.121-.963c-1.97-1.694-5.58-.673-6.085 1.721-.47 2.23-.61 2.302-4.703 2.424l-3.833.114-.281-1.513c-1.288-6.933-8.821-4.473-8.461 2.764.251 5.052 4.136 7.108 10.045 5.315 2.601-.789 2.651-.721 2.651 3.61 0 4.471-.243 4.757-4.395 5.178-14.75 1.494-23.174-13.669-13.401-24.118 3.916-4.186 8.282-4.914 14.468-2.414 1.162.469 1.478.405 3.796-.77 3.414-1.732 5.891-1.989 8.723-.908 2.952 1.127 2.849 1.197 2.716-1.858l-.119-2.697-18.757-.104c-10.316-.057-18.894.033-19.06.2-.167.167.062 1.383.509 2.701 3.231 9.538-2.475 17.453-12.583 17.453-3.742 0-4.167-.433-3.479-3.549.959-4.342 1.32-4.877 3.128-4.635 2.922.392 5.792-3.809 4.874-7.134-1.138-4.124-2.835-5.168-8.178-5.033l-3.996.101-.107 10.989c-.15 15.441-1.047 14.386 12.232 14.386 10.437 0 9.653-.305 9.653 3.749 0 3.625.662 3.444-12.541 3.444-18.298 0-18.245.056-18.603-19.781l-.225-12.387-1.398-.2-1.399-.2-.117-3.135c-.074-1.967.056-3.344.349-3.696.638-.77 81.438-.85 82.206-.082m-231.994.864c1.344 2.084.002 6.143-2.092 6.326l-1.399.123-.104 15.749c-.122 18.378.292 16.888-4.652 16.732l-3.635-.114-.2-9.59-.2-9.591h-2.597-2.598l-.231 4.796c-.172 3.571-.438 5.259-1.041 6.613-5.264 11.817-24.632 8.192-24.666-4.615-.023-8.609 5.563-14.186 14.209-14.186 3.065 0 3.537-.401 3.537-2.997 0-3.102.374-2.998-10.703-2.991-11.604.007-11.275-.092-10.057 3.043 2.118 5.453.941 10.811-3.039 13.837-3.856 2.932-10.913 4.495-12.833 2.842l-.869-.747 1.082-3.597 1.082-3.596 1.926.124c4.977.322 6.437-7.585 2.039-11.044-1.29-1.015-8.78-1.315-9.706-.389-.582.582-.667 19.211-.099 21.659.738 3.185.827 3.211 11.517 3.436l9.481.2v3.397 3.396l-11.389.111c-12.614.123-13.645-.031-15.999-2.385-2.581-2.581-2.563-2.475-2.782-16.707l-.2-12.987-1.332-.43c-1.914-.619-2.967-4.523-1.742-6.452.574-.904 78.709-.87 79.292.034m107.265 6.116c-.609.609-.289 15.713.36 16.967 1.849 3.576 8.596 2.918 10.848-1.058.898-1.586 1.417-13.6.671-15.544-.252-.657-11.249-.995-11.879-.365m-124.442.398c-.891.359-.659 5.216.273 5.715 2.657 1.421 4.822.105 4.822-2.932 0-2.79-2.157-3.969-5.095-2.783m-15.085 12.687c-2.521 1.12-4.163 4.348-3.638 7.149.793 4.227 6.595 6.137 9.208 3.031 1.287-1.529 1.604-10.037.391-10.502-1.107-.425-4.719-.23-5.961.322m15.32 31.809c3.944.512 7.237 2.03 8.702 4.011 1.452 1.963 1.415 1.966 3.989-.387 5.613-5.129 19.75-5.207 24.609-.136 3.464 3.616 3.575 4.587 3.438 30.073l-.114 20.979h-5.794-5.794l-.2-20.78c-.219-22.767-.229-22.86-2.626-24.431-2.528-1.656-10.212-.582-12.244 1.711-2.093 2.362-2.108 2.527-2.177 23.237-.035 10.614-.164 19.56-.287 19.88-.388 1.012-10.873.837-11.423-.191-.27-.503-.414-7.818-.414-20.991 0-25.33.285-24.335-6.971-24.335-4.944 0-7.147 1.008-8.613 3.942l-.999 1.998-.2 19.98-.2 19.98-5.684.11c-5.625.11-5.686.102-5.904-.799-.122-.5-.171-12.688-.111-27.084l.111-26.173h5.594 5.594l.127 1.598c.181 2.284.541 2.411 2.409.851 3.2-2.674 9.028-3.842 15.182-3.043m89.413.824c8.955 1.245 12.357 5.052 12.827 14.355.415 8.224-.92 12.719-4.49 15.117-2.494 1.675-2.547 1.855-.792 2.687 3.866 1.835 5.098 5.681 4.919 15.363l-.114 6.194h-5.794-5.794l-.289-6.34c-.489-10.728-.563-10.791-12.968-10.982-6.397-.099-9.136-.007-9.462.318-.301.301-.527 3.288-.658 8.731l-.2 8.273-5.362.112c-2.95.061-5.519-.044-5.709-.235-.369-.369-.456-53.076-.088-53.671.314-.508 30.255-.439 33.974.078m59.103-.019c11.141 1.254 14.333 5.271 14.31 18.012-.028 15.539-3.395 18.301-22.701 18.621-6.188.102-10.96.344-11.189.567-.227.22-.486 3.887-.6 8.462l-.199 8.073-5.5.111-5.501.111-.394-1.036c-.529-1.393-.533-50.915-.004-52.307l.39-1.025 13.896.003c7.643.002 15.514.185 17.492.408m40.56 21.634c.11 12.014.349 21.994.532 22.177s6.117.423 13.187.533l12.854.2v4.595 4.596l-18.735.103c-13.502.075-18.888-.022-19.281-.348-.762-.633-.816-52.672-.055-53.432.35-.351 2.03-.459 5.894-.38l5.404.111zm-122.026-11.156c-.319 1.191-.321 13.041-.002 14.635l.249 1.249 9.041-.009c13.061-.012 13.736-.443 13.777-8.782.038-7.767-.336-7.991-13.38-7.992h-9.444zm61.538 0c-.614 2.291-.268 15.411.424 16.103 1.127 1.127 16.4.691 18.944-.541 4.469-2.163 4.421-13.473-.068-15.761-2.382-1.215-18.967-1.044-19.3.199" fill="#5c822d"/><path d="m91.664 16.172c-10.576 1.92-13.588 6.903-14.028 23.205-.692 25.629 3.437 30.559 25.59 30.551 21.551-.008 25.223-3.966 25.215-27.171-.008-19.644-2.505-24.395-13.978-26.59-3.884-.743-18.695-.74-22.799.005m51.177-.088c-.105.275-.144 12.278-.087 26.673l.103 26.174h5.395 5.394l.229-15.385c.245-16.474.322-17.131 2.402-20.41 5.353-8.44 19.397-8.424 23.308.026.794 1.715.844 2.635 1.034 18.786l.2 16.983h5.395 5.394l.104-18.708c.114-20.413.024-21.448-2.211-25.571-5.746-10.598-23.35-12.679-32.938-3.894-3.069 2.812-3.116 2.794-3.116-1.164 0-1.84-.191-3.241-.48-3.53-.685-.685-9.864-.667-10.126.02m77.07.093c-11.182 2.028-13.723 6.97-13.71 26.663.015 23.313 3.256 26.83 24.768 26.872 21.186.041 25.175-3.381 25.852-22.177.171-4.751.105-6.861-.237-7.499l-.475-.888-11.071.106-11.072.107v5.594 5.594l5.395.2 5.394.2.109 1.598c.327 4.795-2.353 5.889-14.014 5.722-13.551-.194-13.268.137-13.268-15.512 0-15.751-.139-15.596 13.971-15.565 11.183.024 12.297.468 13.51 5.381l.491 1.992h5.395 5.395l.123-1.482c.51-6.145-3.209-12.977-8.309-15.266-4.896-2.197-20.26-3.089-28.247-1.64m64.733.019c-11.322 2.071-13.515 6.381-13.515 26.561 0 23.899 2.849 26.949 25.175 26.949 18.652 0 23.342-2.966 24.951-15.778.528-4.211.803-4.018-5.518-3.889l-5.447.111-.454 2.298c-1.076 5.447-2.406 5.991-14.251 5.821-13.493-.193-13.072.303-13.059-15.396.013-16.002-.25-15.7 13.717-15.7 11.364 0 12.546.49 13.595 5.634l.522 2.558h5.559 5.56l-.131-2.598c-.494-9.782-4.663-14.853-13.604-16.55-4.198-.796-18.791-.81-23.1-.021m-170.452 12.107c2.614 1.865 2.691 2.274 2.691 14.254 0 15.945.14 15.785-13.786 15.785-13.955 0-13.786.188-13.786-15.385 0-16.115-.216-15.88 14.385-15.699 8.893.111 9.234.145 10.496 1.045m76.817 58.432c-42.625 5.538-73.686 36.972-77.944 78.882-1.436 14.128 2.658 38.549 6.629 39.546 1.109.278 58.129-.097 59.596-.393 1.413-.284 1.305.288 4.73-25.15 4.752-35.303 5.439-39.545 5.922-36.563.493 3.042.715 67.193.235 67.772-.392.472-5.684.56-33.716.56-18.288 0-33.364.113-33.503.252-.343.342.35 1.607 1.997 3.644l1.372 1.698h21.129c12.754 0 21.22.149 21.36.376.128.206-1.075 1.41-2.673 2.674-6.541 5.173-13.065 12.867-16.987 20.031-2.293 4.188-2.256 4.447.861 5.984 2.942 1.451 2.683 1.584 4.841-2.492 7.025-13.266 23.065-26.337 32.355-26.364l3.197-.009.114 4.137c.117 4.25-.16 5.247-1.462 5.26-5.12.048-17.629 9.893-22.121 17.41-4.138 6.922-4.309 8.95-.839 9.959 2.859.831 3.095.691 4.539-2.693 3.107-7.284 10.514-14.666 17.305-17.247 2.634-1.001 2.818-.721 2.463 3.761-.259 3.277-.402 3.766-1.32 4.53-4.145 3.45-6.26 6.233-7.555 9.94-.695 1.987-1.295 5.878-1.019 6.601.334.877 38.01.711 38.348-.169 1.144-2.982-2.273-10.542-6.545-14.478l-3.047-2.808-.312-3.71c-.352-4.195-.188-4.576 1.705-3.951 6.779 2.237 14.22 9.46 17.953 17.424l1.626 3.472 1.418-.266c5.034-.945 5.188-1.491 2.146-7.602-4.506-9.049-11.564-15.446-21.419-19.413l-3.597-1.448-.115-3.896c-.147-4.989-.033-5.138 3.774-4.946 9.728.491 25.723 14.006 32.479 27.443 1.42 2.826 1.39 2.818 4.984 1.277 2.238-.959 2.303-1.506.585-4.922-3.868-7.694-10.094-15.096-17.778-21.134-1.403-1.103-2.451-2.169-2.327-2.368.129-.21 9.14-.363 21.363-.363h21.14l.806-.866c1.519-1.629 2.898-3.882 2.636-4.305-.18-.293-10.567-.423-33.581-.423-22.921 0-33.4-.132-33.58-.422-.754-1.221-.116-69.611.643-68.83.277.285 1.496 8.421 3.968 26.494.436 3.187 1.238 9.031 1.784 12.987.545 3.956 1.429 10.392 1.964 14.301.562 4.103 1.227 7.496 1.575 8.026l.601.918 29.865.272c34.615.315 31.207.756 32.706-4.237 16.254-54.12-17.753-107.171-73.069-113.99-3.893-.48-5.228-.518-5.656-.163-.478.397-.565 11.498-.591 74.643-.016 40.797-.151 74.986-.299 75.975l-.27 1.798h-2.798-2.797l-.289-55.145c-.158-30.33-.338-64.675-.399-76.324l-.111-21.179-1.199-.058c-.659-.031-2.367.094-3.796.28m.398 6.871c-.002.909-.799 5.763-6.199 37.731-1.64 9.709-4.695 27.87-6.788 40.36s-3.908 23.205-4.033 23.812c-.496 2.415.921 2.293-26.772 2.293h-25.354l-.382-.899c-.21-.494-.733-2.338-1.161-4.096-10.881-44.611 17.666-89.598 62.898-99.122 5.954-1.254 7.793-1.272 7.791-.079m22.321-.31c39.503 6.952 68.601 43.003 67.071 83.096-.293 7.696-2.276 19.3-3.572 20.911-.314.39-5.946.499-25.718.499h-25.317l-.583-.899c-.629-.971-.855-2.251-11.645-66.034-1.45-8.571-3.339-19.669-4.199-24.661-.86-4.993-1.68-10.073-1.823-11.289l-.26-2.212 1.354.001c.744 0 2.856.265 4.692.588m35.822 169.308c-8.096.676-12.273 4.356-12.352 10.884l-.035 2.836-8.907.199c-10.139.228-9.659.043-9.668 3.723-.008 2.754.49 3.87 1.726 3.87 1.786 0 1.863.427 1.873 10.37.009 10.211.242 11.504 2.443 13.583 3.467 3.274 10.624 4.021 15.366 1.603 2.473-1.261 2.561-1.173 2.561 2.536 0 2.047.184 3.5.48 3.796.501.501 6.509.686 7.68.237.561-.215.632-1.974.632-15.704 0-16.73-.042-16.421 2.197-16.421 2.241 0 2.198-.325 2.198 16.62 0 13.913.071 15.689.632 15.905 1.69.648 7.725.255 8.145-.531.265-.495.414-6.384.414-16.376v-15.603l.899-.199c.495-.11 1.529-.248 2.298-.308l1.398-.108.117-3.097c.111-2.948.07-3.12-.857-3.542-.923-.421-.972-.617-.938-3.758.081-7.441-6.924-11.466-18.302-10.515m6.161 8.308c1.651.843 2.031 1.444 2.031 3.218 0 3.437-9.357 4.106-10.536.753-1.2-3.411 4.44-6.045 8.505-3.971m-117.008 5.82c-5.78 1.619-8.432 4.413-9.671 10.191-.625 2.912-.277 3.187 4.035 3.187 3.875 0 3.988-.065 4.742-2.699 1.583-5.537 9.891-3.339 9.119 2.414-.295 2.201-1.329 3.103-3.92 3.419l-2.149.262v3.397 3.397l2.102.256c3.739.457 5.145 2.285 4.413 5.738-1.134 5.352-9.911 4.979-9.911-.421 0-2.392-.473-2.625-5.054-2.491l-3.937.115-.12 2.071c-.153 2.632 1.092 5.219 3.894 8.096 6.944 7.129 18.008 5.418 23.407-3.621.725-1.215.989-1.352 2.597-1.352h1.79l.114 3.66c.144 4.599.137 4.593 5.14 4.447l3.937-.115.104-15.749c.115-17.197.058-16.818 2.509-16.818 2.999 0 2.781-1.265 2.781 16.147 0 18.171-.435 16.62 4.662 16.62 4.901 0 4.529 1.388 4.529-16.914 0-13.645.071-15.395.632-15.611 1.565-.6 14.611-.252 16.045.428 4.457 2.115 3.547 11.318-1.119 11.318-2.517 0-3.569-.974-3.575-3.307-.011-4.03.116-3.928-4.74-3.799l-4.246.113-.124 9.39c-.152 11.574.061 12.81 2.707 15.689l1.925 2.094 10.298.119c11.703.136 10.953.369 10.962-3.402.008-3.29-.044-3.311-8.19-3.311h-6.65l-1.19-1.189c-1.653-1.653-1.615-5.485.052-5.283 6.552.796 9.036.159 12.339-3.16 3.152-3.169 4.759-9.892 3.24-13.56-.635-1.532-.299-2.295 1.081-2.453 1.288-.148 2.018-6.035.841-6.781-1.281-.813-56.206-.393-56.647.432-1.188 2.22-.433 5.623 1.384 6.235l1.199.403.108 8.732c.118 9.548.031 9.958-2.049 9.752-1.107-.11-1.258-.31-1.764-2.318-.304-1.209-1.014-2.804-1.578-3.545l-1.025-1.347.901-2.552c3.505-9.927-5.569-19.225-15.93-16.324m134.256.353c-.293.352-.423 1.729-.349 3.696l.117 3.135 1.399.2 1.398.2.225 12.387c.358 19.837.305 19.781 18.603 19.781 13.203 0 12.541.181 12.541-3.444 0-4.054.784-3.749-9.653-3.749-13.279 0-12.382 1.055-12.232-14.386l.107-10.989 3.996-.101c5.343-.135 7.04.909 8.178 5.033.918 3.325-1.952 7.526-4.874 7.134-1.808-.242-2.169.293-3.128 4.635-.688 3.116-.263 3.549 3.479 3.549 10.108 0 15.814-7.915 12.583-17.453-.447-1.318-.676-2.534-.509-2.701.166-.167 8.744-.257 19.06-.2l18.757.104.119 2.697c.133 3.055.236 2.985-2.716 1.858-2.832-1.081-5.309-.824-8.723.908-2.318 1.175-2.634 1.239-3.796.77-6.186-2.5-10.552-1.772-14.468 2.414-9.773 10.449-1.349 25.612 13.401 24.118 4.152-.421 4.395-.707 4.395-5.178 0-4.331-.05-4.399-2.651-3.61-5.909 1.793-9.794-.263-10.045-5.315-.36-7.237 7.173-9.697 8.461-2.764l.281 1.513 3.833-.114c4.093-.122 4.233-.194 4.703-2.424.505-2.394 4.115-3.415 6.085-1.721l1.121.963.123 8.713c.145 10.302-.113 9.74 4.473 9.74 4.756 0 4.369 1.447 4.491-16.812l.104-15.743 1.412-.229c.777-.126 1.631-.365 1.898-.53.646-.399.652-5.522.007-6.167-.768-.768-81.568-.688-82.206.082m-222.392.148c-7.203.125-6.998.029-6.998 3.286 0 2.638.307 3.202 2.052 3.766l1.332.43.2 12.987c.219 14.232.201 14.126 2.782 16.707 2.354 2.354 3.385 2.508 15.999 2.385l11.389-.111v-3.396-3.397l-9.481-.2c-10.69-.225-10.779-.251-11.517-3.436-.568-2.448-.483-21.077.099-21.659.926-.926 8.416-.626 9.706.389 4.398 3.459 2.938 11.366-2.039 11.044l-1.926-.124-1.082 3.596-1.082 3.597.869.747c1.92 1.653 8.977.09 12.833-2.842 3.98-3.026 5.157-8.384 3.039-13.837-1.218-3.135-1.547-3.036 10.057-3.043 11.077-.007 10.703-.111 10.703 2.991 0 2.596-.472 2.997-3.537 2.997-8.646 0-14.232 5.577-14.209 14.186.034 12.807 19.402 16.432 24.666 4.615.603-1.354.869-3.042 1.041-6.613l.231-4.796h2.598 2.597l.2 9.591.2 9.59 3.635.114c4.944.156 4.53 1.646 4.652-16.732l.104-15.749 1.399-.123c2.094-.183 3.436-4.242 2.092-6.326-.283-.439-55.857-.924-72.604-.634m191.748 7.115c.746 1.944.227 13.958-.671 15.544-2.252 3.976-8.999 4.634-10.848 1.058-.649-1.254-.969-16.358-.36-16.967.63-.63 11.627-.292 11.879.365m-131.706.247c.717.717.61 4.528-.148 5.287-.714.713-3.039.832-4.194.214-.932-.499-1.164-5.356-.273-5.715.993-.401 4.147-.254 4.615.214m-13.739 12.151c1.213.465.896 8.973-.391 10.502-2.613 3.106-8.415 1.196-9.208-3.031-.935-4.989 4.68-9.359 9.599-7.471m2.045 32.17c-3.557.518-6.017 1.458-7.868 3.004-1.868 1.56-2.228 1.433-2.409-.851l-.127-1.598h-5.594-5.594l-.111 26.173c-.06 14.396-.011 26.584.111 27.084.218.901.279.909 5.904.799l5.684-.11.2-19.98.2-19.98.999-1.998c1.466-2.934 3.669-3.942 8.613-3.942 7.256 0 6.971-.995 6.971 24.335 0 13.173.144 20.488.414 20.991.55 1.028 11.035 1.203 11.423.191.123-.32.252-9.266.287-19.88.069-20.71.084-20.875 2.177-23.237 2.032-2.293 9.716-3.367 12.244-1.711 2.397 1.571 2.407 1.664 2.626 24.431l.2 20.78h5.794 5.794l.114-20.979c.137-25.486.026-26.457-3.438-30.073-4.859-5.071-18.996-4.993-24.609.136-2.574 2.353-2.537 2.35-3.989.387-2.441-3.301-9.169-4.969-16.016-3.972m62.753.707c-.368.595-.281 53.302.088 53.671.19.191 2.759.296 5.709.235l5.362-.112.2-8.273c.131-5.443.357-8.43.658-8.731.326-.325 3.065-.417 9.462-.318 12.405.191 12.479.254 12.968 10.982l.289 6.34h5.794 5.794l.114-6.194c.179-9.682-1.053-13.528-4.919-15.363-1.755-.832-1.702-1.012.792-2.687 7.9-5.306 5.78-24.917-3.051-28.221-4.064-1.521-38.423-2.684-39.26-1.329m61.299.673c-.529 1.392-.525 50.914.004 52.307l.394 1.036 5.501-.111 5.5-.111.199-8.073c.114-4.575.373-8.242.6-8.462.229-.223 5.001-.465 11.189-.567 19.306-.32 22.673-3.082 22.701-18.621.03-16.499-3.274-18.413-31.802-18.42l-13.896-.003zm60.84-.556c-.761.76-.707 52.799.055 53.432.393.326 5.779.423 19.281.348l18.735-.103v-4.596-4.595l-12.854-.2c-7.07-.11-13.004-.35-13.187-.533s-.422-10.163-.532-22.177l-.2-21.845-5.404-.111c-3.864-.079-5.544.029-5.894.38m-90.001 10.221c2.086 1.042 2.562 2.41 2.538 7.292-.041 8.339-.716 8.77-13.777 8.782l-9.041.009-.249-1.249c-.319-1.594-.317-13.444.002-14.635l.241-.899h9.444c8.19.001 9.629.094 10.842.7m60.311 0c2.935 1.496 4.462 10.073 2.461 13.819-1.427 2.671-19.093 4.727-21.337 2.483-.692-.692-1.038-13.812-.424-16.103.333-1.243 16.918-1.414 19.3-.199" fill="#f6f8f2"/></g></svg>