<svg xmlns="http://www.w3.org/2000/svg" version="1.1" xmlns:xlink="http://www.w3.org/1999/xlink" width="512" height="512" x="0" y="0" viewBox="0 0 512 512" style="enable-background:new 0 0 512 512" xml:space="preserve" class=""><g><linearGradient id="a" x1="256" x2="256" y1="501.986" y2="10.014" gradientUnits="userSpaceOnUse"><stop offset="0" stop-color="#fa5e07"></stop><stop offset="1" stop-color="#fa5e07"></stop></linearGradient><path fill="url(#a)" fill-rule="evenodd" d="M256 139.426a116.583 116.583 0 1 0 86.538 38.463l-18.006 18.016a91.153 91.153 0 1 1-8.463-8.459l18.006-18.016a116.154 116.154 0 0 0-78.075-30zM422.069 81.39a5.983 5.983 0 0 1 8.484 8.438l-27.916 27.931 22.7.014 56.213-56.214-25.106-.016a5.977 5.977 0 0 1-5.976-5.976l-.016-25.106-56.216 56.213.014 22.549zm-38.544 55.49a173.648 173.648 0 0 1 46.85 113.02l-15.778-.02a5.977 5.977 0 1 0 0 11.953l15.788.02a174.548 174.548 0 0 1-168.273 168.632l.02-15.879a5.977 5.977 0 0 0-11.953 0l-.02 15.895a174.548 174.548 0 0 1-168.742-168.38l15.986.021a5.977 5.977 0 0 0 0-11.954l-16-.02A174.548 174.548 0 0 1 249.888 81.526l-.02 15.886a5.977 5.977 0 1 0 11.953 0l.02-15.888a173.653 173.653 0 0 1 113.225 46.894l-32.5 32.515a128.585 128.585 0 1 0 8.463 8.459l32.494-32.512zm-67.5 67.532a79.155 79.155 0 1 1-8.463-8.459l-32.743 32.76c-21.852-15.1-51.978.55-51.978 27.3A33.158 33.158 0 0 0 256 289.164c26.754 0 42.4-30.143 27.286-51.992l32.743-32.76zm-41.45 41.471a21.162 21.162 0 0 1-3.62 25.085c-13.289 13.29-36.114 3.834-36.114-14.959a21.178 21.178 0 0 1 31.27-18.584l-14.353 14.365a5.983 5.983 0 0 0 8.484 8.438l14.337-14.345zm151.656-116.156-33-.021a186.166 186.166 0 0 1 49.148 120.207l25.44.032a210.9 210.9 0 0 0-41.591-120.218zm-43.931-10.96-.02-33.014a210.9 210.9 0 0 0-120.391-41.672l-.033 25.437A186.169 186.169 0 0 1 382.3 118.767zm6.181-43.308 63.691-63.692a6 6 0 0 1 10.219 4.753l.021 33.074 33.588.021a5.985 5.985 0 0 1 4.226 10.2l.016.016-63.707 63.707a222.976 222.976 0 0 1 43.292 126.422l16.173.021a5.977 5.977 0 0 1 0 11.953l-16.17-.021c-3.087 118.914-98.875 214.806-217.781 218.023l-.02 16.073a5.977 5.977 0 1 1-11.953 0l.02-16.063C131.1 476.912 35.13 381.045 31.966 262.058L16 262.038a5.977 5.977 0 0 1 0-11.953l15.961.02c3.09-118.992 99-214.919 217.99-218.029l.02-16.066a5.977 5.977 0 1 1 11.953 0l-.02 16.067a222.968 222.968 0 0 1 126.58 43.382zM69.41 262.106c3.169 98.322 82.4 177.411 180.734 180.4l-.033 25.436c-112.4-3-202.993-93.476-206.141-205.869zM43.966 250.12c3.056-112.4 93.573-202.947 205.97-206.04l-.036 25.439c-98.326 3.115-177.458 82.3-180.5 180.634l-25.436-.033zM262.1 442.492c98.239-3.22 177.252-82.375 180.293-180.626l25.437.032c-3.055 112.32-93.451 202.835-205.763 206.034z" opacity="1" data-original="url(#a)" class=""></path></g></svg>