<svg xmlns="http://www.w3.org/2000/svg" version="1.1" xmlns:xlink="http://www.w3.org/1999/xlink" width="512" height="512" x="0" y="0" viewBox="0 0 100 100" style="enable-background:new 0 0 512 512" xml:space="preserve" class=""><g><path d="M69.52 44.695c0-5.364-2.244-10.55-6.155-14.225-3.966-3.728-9.165-5.599-14.608-5.255-9.86.612-17.88 8.83-18.26 18.708-.204 5.268 1.664 10.282 5.26 14.118 2.683 2.863 3.972 4.56 4.31 7.544-2.14.537-3.737 2.462-3.737 4.766 0 2.246 1.52 4.125 3.578 4.717-.714.855-1.162 1.94-1.162 3.139 0 2.35 1.657 4.315 3.862 4.804C42.83 86.901 46.055 90 50 90s7.17-3.099 7.392-6.989c2.205-.49 3.862-2.454 3.862-4.804 0-1.199-.448-2.284-1.162-3.14 2.058-.591 3.578-2.47 3.578-4.716 0-2.304-1.596-4.229-3.736-4.766.342-2.96 1.645-4.68 4.358-7.596a19.45 19.45 0 0 0 5.228-13.294zM50 88c-2.8 0-5.11-2.137-5.385-4.865h10.77A5.421 5.421 0 0 1 50 88zm6.325-6.865h-12.65c-1.615 0-2.929-1.314-2.929-2.928s1.314-2.928 2.929-2.928h12.65c1.615 0 2.929 1.314 2.929 2.928s-1.314 2.928-2.929 2.928zM61.67 70.35a2.931 2.931 0 0 1-2.928 2.928H41.258a2.931 2.931 0 0 1-2.928-2.928 2.931 2.931 0 0 1 2.928-2.928h17.484a2.931 2.931 0 0 1 2.928 2.928zM45.695 50.408H42.62c-1.696 0-3.076-1.38-3.076-3.076s1.38-3.076 3.076-3.076 3.076 1.38 3.076 3.076zm2 15.015V52.408h4.61v13.015h-4.61zm10.25 0h-3.64V52.408h3.076c2.799 0 5.076-2.277 5.076-5.076s-2.277-5.076-5.076-5.076-5.076 2.277-5.076 5.076v3.076h-4.61v-3.076c0-2.799-2.277-5.076-5.076-5.076s-5.076 2.277-5.076 5.076 2.277 5.076 5.076 5.076h3.076v13.015h-3.64c-.412-3.735-2.125-5.853-4.84-8.75-3.227-3.443-4.903-7.944-4.72-12.673.34-8.865 7.538-16.24 16.385-16.79 4.901-.302 9.557 1.372 13.116 4.718 3.562 3.347 5.524 7.882 5.524 12.767 0 4.444-1.666 8.681-4.693 11.932-2.738 2.943-4.465 5.089-4.881 8.796zm-3.64-15.015v-3.076c0-1.696 1.38-3.076 3.076-3.076s3.076 1.38 3.076 3.076-1.38 3.076-3.076 3.076zM49 11v8.924a1 1 0 1 0 2 0V11a1 1 0 1 0-2 0zM34.963 24.953a1 1 0 0 0 .865-1.5l-4.462-7.728a1 1 0 1 0-1.732 1l4.462 7.728a1 1 0 0 0 .867.5zM24.453 34.096l-7.728-4.462a1 1 0 1 0-1 1.732l7.728 4.462a1.001 1.001 0 0 0 1-1.732zM11 51h8.924a1 1 0 1 0 0-2H11a1 1 0 1 0 0 2zM16.226 70.5c.17 0 .341-.043.499-.134l7.728-4.462a1 1 0 1 0-1-1.732l-7.728 4.462a1 1 0 0 0 .5 1.866zM75.547 65.904l7.728 4.462a1.001 1.001 0 0 0 1-1.732l-7.728-4.462a1 1 0 1 0-1 1.732zM89 49h-8.924a1 1 0 1 0 0 2H89a1 1 0 1 0 0-2zM75.18 35.462a1 1 0 0 0 1.367.366l7.728-4.462a1 1 0 1 0-1-1.732l-7.728 4.462a1 1 0 0 0-.366 1.366zM70 15.358a1.001 1.001 0 0 0-1.366.367l-4.462 7.728a1 1 0 1 0 1.732 1l4.462-7.728A1 1 0 0 0 70 15.358z" fill="#fa5e07" opacity="1" data-original="#fa5e07" class=""></path></g></svg>